<?xml version="1.0" encoding="utf-8"?>
<!-- Generator: Adobe Illustrator 20.0.0, SVG Export Plug-In . SVG Version: 6.00 Build 0)  -->
<svg version="1.1" id="logo" xmlns="http://www.w3.org/2000/svg" xmlns:xlink="http://www.w3.org/1999/xlink" x="0px" y="0px"
	 viewBox="0 0 5465 6964.1" style="enable-background:new 0 0 5465 6964.1;" xml:space="preserve">
<style type="text/css">
	.st0{display:none;}
	.st1{display:inline;}
	.st2{display:inline;fill:none;stroke:#000000;stroke-width:33;stroke-miterlimit:10;}
	.st3{font-family:'PTSerif-Italic';}
	.st4{font-size:489.641px;}
	.st5{letter-spacing:12;}
	.st6{font-family:'Futura-Medium';}
	.st7{font-size:633.2552px;}
	.st8{letter-spacing:15;}
</style>
<g id="backup_-_V" class="st0">
	<path id="XMLID_3_" class="st1" d="M2422.5,2006.9l-921.8,2234.7c-8.6-23-17.2-46-25.9-69c-9-24-18-48.1-27-72.1
		c-9.4-25-18.8-50.1-28.2-75.1c-9.7-26-19.5-51.9-29.2-77.9c-10.1-26.8-20.1-53.6-30.2-80.5c-10.4-27.6-20.7-55.2-31.1-82.9
		c-10.6-28.4-21.3-56.7-32-85.1c-10.9-29.1-21.8-58.1-32.7-87.2c-11.1-29.7-22.3-59.4-33.4-89c-11.4-30.2-22.7-60.5-34.1-90.7
		c-11.6-30.7-23.1-61.5-34.7-92.2c-11.7-31.2-23.4-62.4-35.2-93.6c-11.9-31.6-23.7-63.1-35.6-94.7c-12-31.9-24-63.8-36-95.7
		c-12.1-32.2-24.2-64.3-36.3-96.5c-12.2-32.4-24.4-64.7-36.5-97.1c-12.2-32.5-24.5-65-36.7-97.5c-12.3-32.6-24.5-65.2-36.8-97.7
		c-12.3-32.6-24.6-65.2-36.9-97.8c-12.3-32.6-24.6-65.1-36.8-97.7c-12.2-32.5-24.5-64.9-36.7-97.4c-12.2-32.3-24.4-64.6-36.6-96.9
		c-12.1-32.1-24.2-64.1-36.4-96.2c-12-31.8-24-63.6-36.1-95.4c-11.9-31.4-23.8-62.9-35.7-94.3c-11.8-31-23.5-62.1-35.3-93.1
		c-11.6-30.6-23.2-61.2-34.8-91.7c-11.4-30.1-22.8-60.1-34.2-90.2c-11.2-29.5-22.4-58.9-33.6-88.4c-11-28.8-21.9-57.7-32.9-86.5
		c-10.7-28.1-21.4-56.2-32.1-84.4c-10.4-27.4-20.8-54.7-31.3-82.1c-10.1-26.5-20.2-53.1-30.4-79.6c-9.8-25.6-19.6-51.3-29.4-76.9
		c-9.4-24.7-18.9-49.4-28.4-74.1c-9.1-23.7-18.2-47.4-27.3-71.1c-8.7-22.6-17.4-45.3-26.1-67.9c-8.3-21.5-16.6-43-24.8-64.5
		c-7.8-20.3-15.7-40.6-23.5-60.9c-7.4-19.1-14.8-38.1-22.2-57.2c-6.9-17.8-13.8-35.5-20.7-53.2c-6.4-16.4-12.8-32.8-19.2-49.1
		c-5.9-15-11.7-29.9-17.6-44.8c-5.3-13.5-10.7-26.9-16-40.4c-4.7-11.9-9.5-23.8-14.3-35.7c-4.1-10.3-8.3-20.6-12.5-30.9
		c-3.5-8.6-7.1-17.3-10.7-25.9c-2.9-6.9-5.8-13.8-8.8-20.7c-2.2-5.1-4.5-10.2-6.8-15.3c-1.5-3.3-3-6.6-4.7-9.7
		c-10.2-18.6-39.1-21.8-57.8-23.8c-28.8-3.1-56.8-1.2-82.4,13.1c-13.2,7.4-25.4,15.6-34.9,27.5c-15.6,19.7-22.1,44-29.6,67.6
		c-7.8,24.1-15.2,48.3-22,72.7c-5.3,19.1-10.9,38.6-13,58.3c-5.9,57.4-6.8,179.2,5.4,238.2c0.2,0.8,0.4,1.6,0.6,2.4
		c12,39.3,24.4,78.6,37,117.7c14.2,44.2,28.7,88.2,43.5,132.2c16.2,48.5,32.7,96.9,49.3,145.2c18,52.3,36.2,104.5,54.5,156.6
		c19.5,55.6,39.2,111.1,59.1,166.5c20.9,58.3,41.9,116.6,63,174.9c22,60.6,44.1,121.2,66.3,181.7c22.9,62.3,45.8,124.7,68.9,186.9
		c23.5,63.6,47.2,127.1,70.9,190.7c24,64.3,48.1,128.6,72.3,192.9c24.3,64.5,48.6,129,73,193.5c24.3,64.2,48.7,128.4,73.1,192.6
		c24.1,63.4,48.3,126.8,72.5,190.2c23.7,62.1,47.5,124.2,71.3,186.2c23.1,60.2,46.3,120.5,69.5,180.7
		c22.3,57.9,44.7,115.8,67.1,173.6c21.3,55,42.6,110,64,165.1c20,51.7,40.1,103.3,60.2,154.9c18.6,47.8,37.2,95.5,55.8,143.3
		c16.9,43.4,33.9,86.7,50.8,130c15,38.4,30.1,76.9,45.2,115.3c12.9,33,25.9,66,38.9,99c10.6,27.1,21.3,54.1,31.9,81.2
		c8.1,20.6,16.2,41.2,24.4,61.8c5.4,13.6,10.8,27.3,16.1,40.9c7,17.7,17.2,35.1,32.5,46.7c17.8,13.5,37.6,13.4,58.9,13.4
		c24.7,0,49.3,0,74,0c62.5,0,124.9,0,187.4,0c13.7,0,41.1-0.1,41.1-0.1l68.9,0l17.6-44.9c0,0,9-21.9,13.2-33c6-15.6,12-31.2,18-46.9
		c8.9-23.3,17.9-46.6,26.8-69.9c11.6-30.1,23.1-60.3,34.7-90.4c13.8-36.1,27.7-72.2,41.5-108.4c15.8-41.3,31.6-82.5,47.5-123.8
		c17.5-45.6,34.9-91.1,52.4-136.7c18.8-49,37.6-98,56.3-147c19.8-51.6,39.6-103.2,59.3-154.7c20.4-53.3,40.9-106.6,61.3-160
		c20.8-54.2,41.6-108.4,62.4-162.6c20.8-54.3,41.6-108.5,62.4-162.8c20.5-53.5,41-106.9,61.5-160.4c19.9-51.8,39.7-103.6,59.6-155.4
		c18.9-49.3,37.8-98.6,56.7-147.9c17.6-45.9,35.2-91.9,52.8-137.8c16-41.7,32-83.5,48-125.2c14.1-36.7,28.1-73.4,42.2-110.1
		c11.8-30.8,23.6-61.6,35.4-92.4c9.2-24,18.4-48.1,27.7-72.1c6.3-16.5,12.6-32.9,18.9-49.4c3.1-8,6.1-16,9.2-24
		c0.2-0.7,0.5-1.3,0.7-2C2708.1,2155.9,2460.4,1913.5,2422.5,2006.9z"/>
</g>
<g id="ramka_mniejsza" class="st0">
	<polygon id="XMLID_6_" class="st1" points="3978.5,5345.7 2668.4,5345.7 2668.4,5280.7 3913.5,5280.7 3913.5,-41.4 -1408.5,-41.4 
		-1408.5,5280.7 -173.2,5280.7 -173.2,5345.7 -1473.5,5345.7 -1473.5,-106.3 3978.5,-106.3 	"/>
</g>
<g id="ramka_większa">
	<polygon id="XMLID_9_" points="5465,5465 3772.7,5465 3772.7,5387 5387,5387 5387,78 78,78 78,5387 1692.2,5387 1692.2,5465 
		0,5465 0,0 5465,0 	"/>
</g>
<path id="XMLID_1_" d="M3901.7,2119.8l-921.8,2234.7c-8.6-23-17.2-46-25.9-69c-9-24-18-48.1-27-72.1c-9.4-25-18.8-50.1-28.2-75.1
	c-9.7-26-19.5-51.9-29.2-77.9c-10.1-26.8-20.1-53.6-30.2-80.5c-10.4-27.6-20.7-55.2-31.1-82.9c-10.6-28.4-21.3-56.7-32-85.1
	c-10.9-29.1-21.8-58.1-32.7-87.2c-11.1-29.7-22.3-59.4-33.4-89c-11.4-30.2-22.7-60.5-34.1-90.7c-11.6-30.7-23.1-61.5-34.7-92.2
	c-11.7-31.2-23.4-62.4-35.2-93.6c-11.9-31.6-23.7-63.1-35.6-94.7c-12-31.9-24-63.8-36-95.7c-12.1-32.2-24.2-64.3-36.3-96.5
	c-12.2-32.4-24.4-64.7-36.5-97.1c-12.2-32.5-24.5-65-36.7-97.5c-12.3-32.6-24.5-65.2-36.8-97.7c-12.3-32.6-24.6-65.2-36.9-97.8
	c-12.3-32.6-24.6-65.1-36.8-97.7c-12.2-32.5-24.5-64.9-36.7-97.4c-12.2-32.3-24.4-64.6-36.6-96.9c-12.1-32.1-24.2-64.1-36.4-96.2
	c-12-31.8-24-63.6-36.1-95.4c-11.9-31.4-23.8-62.9-35.7-94.3c-11.8-31-23.5-62.1-35.3-93.1c-11.6-30.6-23.2-61.2-34.8-91.7
	c-11.4-30.1-22.8-60.1-34.2-90.2c-11.2-29.5-22.4-58.9-33.6-88.4c-11-28.8-21.9-57.7-32.9-86.5c-10.7-28.1-21.4-56.2-32.1-84.4
	c-10.4-27.4-20.8-54.7-31.3-82.1c-10.1-26.5-20.2-53.1-30.4-79.6c-9.8-25.6-19.6-51.3-29.4-76.9c-9.4-24.7-18.9-49.4-28.4-74.1
	c-9.1-23.7-18.2-47.4-27.3-71.1c-8.7-22.6-17.4-45.3-26.1-67.9c-8.3-21.5-16.6-43-24.8-64.5c-7.8-20.3-15.7-40.6-23.5-60.9
	c-7.4-19.1-14.8-38.1-22.2-57.2c-6.9-17.8-13.8-35.5-20.7-53.2c-6.4-16.4-12.8-32.8-19.2-49.1c-5.9-15-11.7-29.9-17.6-44.8
	c-5.3-13.5-10.7-26.9-16-40.4c-4.7-11.9-9.5-23.8-14.3-35.7c-4.1-10.3-8.3-20.6-12.5-30.9c-3.5-8.6-7.1-17.3-10.7-25.9
	c-2.9-6.9-5.8-13.8-8.8-20.7c-2.2-5.1-4.5-10.2-6.8-15.3c-1.5-3.3-3-6.6-4.7-9.7c-10.2-18.6-39.1-21.8-57.8-23.8
	c-28.8-3.1-56.8-1.2-82.4,13.1c-13.2,7.4-25.4,15.6-34.9,27.5c-15.6,19.7-22.1,44-29.6,67.6c-7.8,24.1-15.2,48.3-22,72.7
	c-5.3,19.1-10.9,38.6-13,58.3c-5.9,57.4-6.8,179.2,5.4,238.2c0.2,0.8,0.4,1.6,0.6,2.4c12,39.3,24.4,78.6,37,117.7
	c14.2,44.2,28.7,88.2,43.5,132.2c16.2,48.5,32.7,96.9,49.3,145.2c18,52.3,36.2,104.5,54.5,156.6c19.5,55.6,39.2,111.1,59.1,166.5
	c20.9,58.3,41.9,116.6,63,174.9c22,60.6,44.1,121.2,66.3,181.7c22.9,62.3,45.8,124.7,68.9,186.9c23.5,63.6,47.2,127.1,70.9,190.7
	c24,64.3,48.1,128.6,72.3,192.9c24.3,64.5,48.6,129,73,193.5c24.3,64.2,48.7,128.4,73.1,192.6c24.1,63.4,48.3,126.8,72.5,190.2
	c23.7,62.1,47.5,124.2,71.3,186.2c23.1,60.2,46.3,120.5,69.5,180.7c22.3,57.9,44.7,115.8,67.1,173.6c21.3,55,42.6,110,64,165.1
	c20,51.7,40.1,103.3,60.2,154.9c18.6,47.8,37.2,95.5,55.8,143.3c16.9,43.4,33.9,86.7,50.8,130c15,38.4,30.1,76.9,45.2,115.3
	c12.9,33,25.9,66,38.9,99c10.6,27.1,21.3,54.1,31.9,81.2c8.1,20.6,16.2,41.2,24.4,61.8c5.4,13.6,10.8,27.3,16.1,40.9
	c7,17.7,17.2,35.1,32.5,46.7c17.8,13.5,37.6,13.4,58.9,13.4c24.7,0,49.3,0,74,0c62.5,0,124.9,0,187.4,0c13.7,0,41.1-0.1,41.1-0.1
	l68.9,0l17.6-44.9c0,0,9-21.9,13.2-33c6-15.6,12-31.2,18-46.9c8.9-23.3,17.9-46.6,26.8-69.9c11.6-30.1,23.1-60.3,34.7-90.4
	c13.8-36.1,27.7-72.2,41.5-108.4c15.8-41.3,31.6-82.5,47.5-123.8c17.5-45.6,34.9-91.1,52.4-136.7c18.8-49,37.6-98,56.3-147
	c19.8-51.6,39.6-103.2,59.3-154.7c20.4-53.3,40.9-106.6,61.3-160c20.8-54.2,41.6-108.4,62.4-162.6c20.8-54.3,41.6-108.5,62.4-162.8
	c20.5-53.5,41-106.9,61.5-160.4c19.9-51.8,39.7-103.6,59.6-155.4c18.9-49.3,37.8-98.6,56.7-147.9c17.6-45.9,35.2-91.9,52.8-137.8
	c16-41.7,32-83.5,48-125.2c14.1-36.7,28.1-73.4,42.2-110.1c11.8-30.8,23.6-61.6,35.4-92.4c9.2-24,18.4-48.1,27.7-72.1
	c6.3-16.5,12.6-32.9,18.9-49.4c3.1-8,6.1-16,9.2-24c0.2-0.7,0.5-1.3,0.7-2C4187.3,2268.7,3939.6,2026.3,3901.7,2119.8z"/>
<g id="napisy" class="st0">
	<line id="XMLID_11_" class="st2" x1="4446.9" y1="6811" x2="5465" y2="6811"/>
	<line id="XMLID_10_" class="st2" x1="0" y1="6811" x2="1018.1" y2="6811"/>
	<text id="XMLID_7_" transform="matrix(1 0 0 1 1577.4504 6952.5308)" class="st1 st3 st4 st5">since 2010</text>
	<text id="XMLID_4_" transform="matrix(1 0 0 1 254.5099 6168.624)" class="st1 st6 st7 st8">cleaning agency</text>
</g>
<g id="napisy_ścieżki">
	<g id="XMLID_14_">
		<rect id="XMLID_74_" x="4446.9" y="6794.5" width="1018.1" height="33"/>
	</g>
	<g id="XMLID_13_">
		<rect id="XMLID_73_" x="0" y="6794.5" width="1018.1" height="33"/>
	</g>
	<g id="XMLID_12_">
		<path id="XMLID_51_" d="M1702.3,6894.5c-0.3-7.8-2.5-14.5-6.6-20.2c-4.1-5.7-9.3-11.1-15.7-16.3c-6.4-5.2-13.1-10.4-20.3-15.6
			c-7.2-5.2-14-11-20.3-17.4s-11.6-13.7-15.7-22c-4.1-8.3-6.1-18.4-6.1-30.1s2.3-22,6.9-30.8c4.6-8.8,10.8-16.2,18.9-22
			c8-5.9,17.6-10.4,28.9-13.5c11.3-3.1,23.6-4.7,37-4.7c8.5,0,18,0.7,28.6,2.2c10.6,1.5,20.6,5,30.1,10.5c0,3.6-0.7,7.8-2,12.5
			c-1.3,4.7-3,9.3-5.1,13.7c-2.1,4.4-4.5,8.5-7.1,12.2c-2.6,3.8-5.4,6.3-8.3,7.6l-36.2-37.2c-6.7,0.3-13,1.1-18.7,2.4
			c-5.8,1.3-10.8,3.4-15.1,6.3c-4.3,2.9-7.7,6.7-10.1,11.4s-3.6,10.6-3.6,17.8c0,8.4,2.1,15.7,6.3,21.7c4.2,6,9.4,11.7,15.7,17
			c6.3,5.4,13.1,10.6,20.3,15.6c7.3,5.1,14,10.8,20.3,17.1c6.3,6.4,11.5,13.7,15.7,22c4.2,8.3,6.3,18.2,6.3,29.6
			c0,11.8-2.7,22.2-8.1,31.3c-5.4,9.1-12.7,16.9-22,23.3c-9.3,6.4-20.1,11.2-32.3,14.4c-12.2,3.3-25.2,4.9-38.9,4.9
			s-26.2-1.4-37.5-4.2s-20.2-6.3-26.7-10.5c1.6-8.5,3.6-16.7,5.9-24.7c2.3-8,7-15.4,14.2-22.3l44.1,40.2c6.9,0,13.6-0.8,20.3-2.4
			c6.7-1.6,12.7-4.2,18.1-7.8c5.4-3.6,9.8-7.9,13.2-13.1C1700.1,6908.3,1702,6902,1702.3,6894.5z"/>
		<path id="XMLID_53_" d="M1828.6,6731.7v-12.2c4.9-2,10.4-4,16.6-6.1c6.2-2.1,12.6-4,19.1-5.6c6.5-1.6,12.7-3,18.6-4.2
			c5.9-1.1,11.1-1.7,15.7-1.7l8.8,5.9l-46,217.4h36.2v12.7c-6.9,5.2-14.9,9.5-24,12.7c-9.1,3.3-18.1,4.9-26.9,4.9
			c-9.5,0-16.2-2.1-20.3-6.4c-4.1-4.2-6.1-9.1-6.1-14.7c0-6.5,0.5-12.9,1.5-19.1c1-6.2,2.3-13.1,3.9-20.6l34.3-158.2L1828.6,6731.7z
			 M1868.3,6623c0-8.5,2.6-15.2,7.8-20.1c5.2-4.9,12.1-7.3,20.6-7.3c9.1,0,16.3,2.4,21.5,7.3c5.2,4.9,7.8,11.6,7.8,20.1
			c0,8.2-2.6,14.5-7.8,19.1c-5.2,4.6-12.4,6.9-21.5,6.9c-8.5,0-15.3-2.3-20.6-6.9C1870.9,6637.5,1868.3,6631.2,1868.3,6623z"/>
		<path id="XMLID_56_" d="M2131.2,6813c2.3-10.1,4.3-19.5,6.1-28.2c1.8-8.6,2.7-17.2,2.7-25.7c0-7.5-1.7-13.9-5.1-19.1
			c-3.4-5.2-8.9-7.8-16.4-7.8c-8.8,0-17.8,3.6-26.9,10.8c-9.1,7.2-17.6,15.8-25.5,26c-7.8,10.1-14.9,20.6-21.3,31.6
			c-6.4,10.9-11.2,20-14.4,27.2l-26,124.9h-41.1l43.1-216.4l-29.9-4.4l1-12.2c4.6-2.3,9.7-4.5,15.4-6.6c5.7-2.1,11.6-4,17.6-5.6
			c6-1.6,11.9-2.9,17.6-3.9c5.7-1,11-1.5,15.9-1.5l9.8,5.9l-18.6,86.7h2.4c6.2-13.1,13.3-25.2,21.3-36.5c8-11.3,16.5-21.1,25.5-29.4
			c9-8.3,18.4-14.8,28.2-19.6c9.8-4.7,19.7-7.1,29.9-7.1c13.7,0,23.7,4.3,30.1,13c6.4,8.7,9.5,19.5,9.5,32.6
			c0,7.2-0.8,16.2-2.4,26.9c-1.6,10.8-3.6,20.9-5.9,30.4l-27.9,120.5h36.2v12.7c-6.5,5.2-14.4,9.5-23.7,12.7
			c-9.3,3.3-18.4,4.9-27.2,4.9c-9.5,0-16-2-19.6-5.9c-3.6-3.9-5.4-8.2-5.4-12.7c0-6.2,0.8-13,2.4-20.3c1.6-7.3,3.3-14.8,4.9-22.3
			L2131.2,6813z"/>
		<path id="XMLID_58_" d="M2411.8,6909c-3.6,6.2-8.2,12.2-13.7,18.1c-5.6,5.9-12.1,11.2-19.6,15.9c-7.5,4.7-15.9,8.5-25.2,11.3
			s-19.5,4.2-30.6,4.2c-24.2,0-43.3-7.7-57.3-23c-14-15.3-21.1-36.2-21.1-62.7c0-23.5,3.7-45.6,11.3-66.3
			c7.5-20.7,17.7-38.8,30.6-54.3c12.9-15.5,28.1-27.7,45.5-36.7c17.5-9,36.1-13.5,56.1-13.5c12.4,0,22.5,1,30.4,3
			c7.8,2,13.7,4.8,17.6,8.5c0.3,3.7,0.1,7.7-0.7,12.2c-0.8,4.4-2.1,8.8-3.9,13c-1.8,4.2-4.1,8.2-6.9,11.8c-2.8,3.6-5.6,6-8.6,7.3
			l-33.3-34.3c-11.1,0.3-22.1,3.7-33.1,10.3c-10.9,6.5-20.7,15.8-29.4,27.8c-8.7,12-15.7,26.6-21.1,43.7
			c-5.4,17.1-7.9,36.4-7.6,57.9c-0.3,22.5,4.2,38.9,13.5,49.3s21.9,15.6,37.9,15.6c6.9,0,13.3-1,19.3-2.9c6-2,11.7-4.4,16.9-7.3
			c5.2-2.9,10-6,14.2-9.3c4.2-3.3,8-6.2,11.3-8.8L2411.8,6909z"/>
		<path id="XMLID_60_" d="M2638.5,6909c-2.9,6.2-7.2,12.2-12.7,18.1c-5.6,5.9-12.1,11.2-19.6,15.9c-7.5,4.7-16,8.5-25.5,11.3
			c-9.5,2.8-19.6,4.2-30.4,4.2c-27.1,0-47.9-7.8-62.4-23.3c-14.5-15.5-21.8-37-21.8-64.4c0-23.2,3.3-45,9.8-65.6
			c6.5-20.6,15.7-38.5,27.4-53.9c11.8-15.3,26-27.4,42.8-36.2c16.8-8.8,35.5-13.2,56.1-13.2c15.7,0,29.1,4,40.4,12
			c11.3,8,16.9,19.8,16.9,35.5c0,23.2-11.5,41.5-34.5,54.8c-23,13.4-60.1,22-111.4,26c-1.3,5.6-2.2,10.9-2.7,16.2
			c-0.5,5.2-0.7,10.3-0.7,15.2c0,19.6,5,35.6,14.9,48c10,12.4,24.6,18.6,43.8,18.6c6.2,0,12.3-1,18.4-2.9c6-2,11.8-4.4,17.1-7.3
			s10.3-6,14.7-9.3c4.4-3.3,8.2-6.2,11.5-8.8L2638.5,6909z M2587.1,6723.4c-14,0.3-27.1,6.9-39.2,19.6
			c-12.1,12.7-22.4,34.6-30.8,65.6c31.7-1,56.3-6.4,73.9-16.2c17.6-9.8,26.4-23.5,26.4-40.9c0-6.8-2-13.1-6.1-18.9
			C2607.2,6726.8,2599.1,6723.7,2587.1,6723.4z"/>
		<path id="XMLID_63_" d="M2901.4,6705.3h-12.2c-1.6-9.5-3-20.6-4.2-33.3c-1.1-12.7-1.6-24.8-1.2-36.2c13.8-9.5,28.2-17.1,43.3-23
			c15.1-5.9,32-8.8,50.7-8.8c16.4,0,30.1,1.8,41.1,5.4c11,3.6,19.9,8.6,26.6,14.9c6.7,6.4,11.6,13.7,14.5,22s4.4,17.2,4.4,26.7
			c0,18.9-5.7,38.4-17,58.5c-11.3,20.1-25.6,39.8-42.8,59.2c-17.2,19.4-36,38.1-56.3,56.1c-20.3,18-39.3,34.1-57,48.2l-24.6,19.3v2
			l27.6-2.9h84.7l35.9-55.8h12.2c-0.3,7.8-1,16.1-2,24.7c-1,8.7-2.2,17.2-3.7,25.7c-1.5,8.5-3,16.6-4.7,24.2
			c-1.6,7.7-3.1,14.4-4.4,20.3h-203.2l3.4-15.7c9.8-7.8,21.5-17.6,35.3-29.4c13.7-11.8,28.2-24.7,43.3-38.9
			c15.2-14.2,30.3-29.5,45.3-45.8c15-16.3,28.5-32.9,40.4-49.7c11.9-16.8,21.6-33.7,29.1-50.7c7.5-17,11.3-33.3,11.3-49
			c0-13.1-4-23.7-12-31.8c-8-8.2-19.8-12.2-35.5-12.2c-13.7,0-26.1,2-37.2,5.9L2901.4,6705.3z"/>
		<path id="XMLID_65_" d="M3090.4,6853.1c0-19.3,1.5-38.8,4.4-58.8c2.9-19.9,7.3-39.1,13-57.5c5.7-18.4,12.9-35.7,21.5-51.9
			c8.6-16.2,18.8-30.3,30.4-42.4c11.6-12.1,24.6-21.5,39.2-28.4c14.5-6.9,30.4-10.3,47.7-10.3c19.3,0,34.8,3.5,46.8,10.5
			c11.9,7,21.2,15.8,27.9,26.4c6.7,10.6,11.2,22,13.5,34c2.3,12.1,3.4,23.2,3.4,33.3c0,29.1-3.3,58.4-9.8,87.9
			c-6.5,29.5-16.2,56.4-29.1,80.5c-12.9,24.2-29.1,43.8-48.7,59c-19.6,15.2-42.4,22.8-68.5,22.8c-19.3,0-34.9-3.5-47-10.5
			c-12.1-7-21.4-15.8-27.9-26.4c-6.5-10.6-10.9-22-13.2-34.3C3091.6,6874.9,3090.4,6863.6,3090.4,6853.1z M3137.4,6855.1
			c0,9.5,0.7,19.1,2.2,28.9c1.5,9.8,4,18.7,7.6,26.7c3.6,8,8.5,14.6,14.7,19.8c6.2,5.2,14,7.8,23.5,7.8c17.6,0,33.1-7,46.3-21.1
			c13.2-14,24.2-32.2,33.1-54.6c8.8-22.4,15.4-47.2,19.8-74.4c4.4-27.3,6.6-54.1,6.6-80.5c0-9.8-0.7-19.6-2.2-29.4s-4-18.7-7.6-26.7
			c-3.6-8-8.5-14.5-14.7-19.6c-6.2-5.1-14-7.8-23.5-8.1c-18,0.3-33.5,7.8-46.8,22.3c-13.2,14.5-24.2,33.1-33.1,55.6
			s-15.3,47.3-19.6,74.4C3139.5,6803.4,3137.4,6829.6,3137.4,6855.1z"/>
		<path id="XMLID_68_" d="M3535,6952.5h-143l2.9-14.2c8.8-3.9,17.7-7.2,26.7-9.8c9-2.6,18-4.9,27.2-6.9l50.9-240.4l9.3-28.9
			c-9.5,3.6-19.6,6.1-30.4,7.6c-10.8,1.5-21.4,2-31.8,1.7v-11.8c16-4.9,32.8-10.9,50.4-18.1c17.6-7.2,34.4-16.5,50.4-27.9h12.2
			l-67.1,317.8c16,3.6,31,9.1,45,16.6L3535,6952.5z"/>
		<path id="XMLID_70_" d="M3628,6853.1c0-19.3,1.5-38.8,4.4-58.8c2.9-19.9,7.3-39.1,13-57.5c5.7-18.4,12.9-35.7,21.5-51.9
			c8.6-16.2,18.8-30.3,30.4-42.4c11.6-12.1,24.6-21.5,39.2-28.4c14.5-6.9,30.4-10.3,47.7-10.3c19.3,0,34.8,3.5,46.8,10.5
			c11.9,7,21.2,15.8,27.9,26.4c6.7,10.6,11.2,22,13.5,34c2.3,12.1,3.4,23.2,3.4,33.3c0,29.1-3.3,58.4-9.8,87.9
			c-6.5,29.5-16.2,56.4-29.1,80.5c-12.9,24.2-29.1,43.8-48.7,59c-19.6,15.2-42.4,22.8-68.5,22.8c-19.3,0-34.9-3.5-47-10.5
			c-12.1-7-21.4-15.8-27.9-26.4c-6.5-10.6-10.9-22-13.2-34.3C3629.2,6874.9,3628,6863.6,3628,6853.1z M3675,6855.1
			c0,9.5,0.7,19.1,2.2,28.9c1.5,9.8,4,18.7,7.6,26.7c3.6,8,8.5,14.6,14.7,19.8c6.2,5.2,14,7.8,23.5,7.8c17.6,0,33.1-7,46.3-21.1
			c13.2-14,24.2-32.2,33.1-54.6c8.8-22.4,15.4-47.2,19.8-74.4c4.4-27.3,6.6-54.1,6.6-80.5c0-9.8-0.7-19.6-2.2-29.4s-4-18.7-7.6-26.7
			c-3.6-8-8.5-14.5-14.7-19.6c-6.2-5.1-14-7.8-23.5-8.1c-18,0.3-33.5,7.8-46.8,22.3c-13.2,14.5-24.2,33.1-33.1,55.6
			s-15.3,47.3-19.6,74.4C3677.2,6803.4,3675,6829.6,3675,6855.1z"/>
	</g>
	<g id="XMLID_8_">
		<path id="XMLID_16_" d="M532.8,5880.4v92.5c-15.9-19.4-30.1-32.7-42.7-39.9c-12.4-7.4-26.9-11.1-43.6-11.1
			c-26.2,0-47.9,9.2-65.2,27.5c-17.3,18.3-26,41.3-26,69c0,28.2,8.3,51.4,25,69.6c16.9,18.1,38.4,27.2,64.6,27.2
			c16.7,0,31.4-3.6,44.2-10.8c12.4-7,26.9-20.6,43.6-40.8v91.8c-28.2,14.6-56.5,22-84.7,22c-46.6,0-85.5-15-116.9-45.1
			c-31.3-30.3-47-67.9-47-112.9c0-44.9,15.9-82.9,47.6-113.8c31.7-30.9,70.7-46.4,116.9-46.4
			C478.4,5859.1,506.4,5866.2,532.8,5880.4z"/>
		<path id="XMLID_18_" d="M685.6,5646.4v522.2H616v-522.2H685.6z"/>
		<path id="XMLID_20_" d="M1063.8,6034.4H848c1.9,24.7,9.9,44.4,24.1,59.1c14.2,14.4,32.5,21.6,54.7,21.6c17.3,0,31.6-4.1,43-12.4
			c11.1-8.2,23.8-23.5,38-45.8l58.7,32.8c-9.1,15.5-18.7,28.7-28.8,39.7c-10.1,11-20.9,20.1-32.5,27.2c-11.5,7.1-24,12.3-37.4,15.6
			c-13.4,3.3-27.9,4.9-43.6,4.9c-44.9,0-81-14.4-108.2-43.3c-27.2-29.1-40.8-67.6-40.8-115.6c0-47.6,13.2-86.2,39.6-115.6
			c26.6-29.1,61.8-43.6,105.7-43.6c44.3,0,79.4,14.1,105.1,42.4c25.6,28,38.3,66.9,38.3,116.6L1063.8,6034.4z M992.4,5977.5
			c-9.7-37.1-33.1-55.7-70.2-55.7c-8.5,0-16.4,1.3-23.8,3.9c-7.4,2.6-14.2,6.3-20.3,11.1c-6.1,4.8-11.3,10.7-15.6,17.5
			c-4.3,6.8-7.6,14.5-9.9,23.2H992.4z"/>
		<path id="XMLID_23_" d="M1377.7,5867.5h69.9v301.2h-69.9v-31.5c-28.7,26.8-59.5,40.2-92.5,40.2c-41.6,0-76.1-15-103.3-45.1
			c-27-30.7-40.5-69.1-40.5-115c0-45.1,13.5-82.8,40.5-112.9c27-30.1,60.8-45.1,101.4-45.1c35,0,66.5,14.4,94.3,43.3V5867.5z
			 M1212.6,6017.1c0,28.9,7.7,52.4,23.2,70.5c15.9,18.3,35.9,27.5,60,27.5c25.8,0,46.6-8.9,62.5-26.6c15.9-18.3,23.8-41.6,23.8-69.9
			c0-28.2-7.9-51.5-23.8-69.9c-15.9-17.9-36.5-26.9-61.8-26.9c-23.9,0-43.9,9.1-60,27.2C1220.6,5967.4,1212.6,5990.1,1212.6,6017.1z
			"/>
		<path id="XMLID_26_" d="M1551.3,5867.5h69.9v27.8c24.3-24.1,51.7-36.2,82.2-36.2c35,0,62.4,11,81.9,33.1
			c16.9,18.8,25.4,49.4,25.4,91.8v184.6h-69.9v-168.2c0-29.7-4.1-50.2-12.4-61.5c-8-11.5-22.7-17.3-43.9-17.3
			c-23.1,0-39.5,7.6-49.2,22.9c-9.5,15-14.2,41.3-14.2,78.8v145.3h-69.9V5867.5z"/>
		<path id="XMLID_28_" d="M1903.8,5742.2c0-12.2,4.4-22.7,13.3-31.5c8.9-8.9,19.5-13.3,31.8-13.3c12.6,0,23.3,4.4,32.2,13.3
			c8.9,8.7,13.3,19.3,13.3,31.8c0,12.6-4.4,23.3-13.3,32.2c-8.7,8.9-19.3,13.3-31.8,13.3c-12.6,0-23.3-4.4-32.2-13.3
			C1908.2,5765.8,1903.8,5755,1903.8,5742.2z M1983.9,5867.5v301.2h-69.6v-301.2H1983.9z"/>
		<path id="XMLID_31_" d="M2087.9,5867.5h69.9v27.8c24.3-24.1,51.7-36.2,82.2-36.2c35,0,62.4,11,81.9,33.1
			c16.9,18.8,25.4,49.4,25.4,91.8v184.6h-69.9v-168.2c0-29.7-4.1-50.2-12.4-61.5c-8-11.5-22.7-17.3-43.9-17.3
			c-23.1,0-39.5,7.6-49.2,22.9c-9.5,15-14.2,41.3-14.2,78.8v145.3h-69.9V5867.5z"/>
		<path id="XMLID_33_" d="M2742.2,6161.5c0,14.2-0.5,26.7-1.4,37.6s-2.2,20.4-3.9,28.6c-4.9,22.7-14.6,42.2-29.1,58.4
			c-27.2,31.3-64.6,47-112.2,47c-40.2,0-73.3-10.8-99.3-32.5c-26.8-22.3-42.3-53.1-46.4-92.5h69.9c2.7,14.8,7.1,26.3,13.3,34.3
			c14.4,18.8,35.5,28.1,63.1,28.1c50.9,0,76.4-31.2,76.4-93.7v-42.1c-27.6,28.2-59.5,42.4-95.5,42.4c-41,0-74.6-14.8-100.8-44.5
			c-26.4-30.1-39.6-67.7-39.6-112.9c0-43.9,12.3-81.2,36.8-111.9c26.4-32.6,61.2-48.9,104.5-48.9c37.9,0,69.5,14.1,94.6,42.4v-34
			h69.6V6161.5z M2675.4,6018.7c0-29.3-7.8-52.7-23.5-70.2c-15.9-17.9-36.2-26.9-60.9-26.9c-26.4,0-47.2,9.8-62.5,29.4
			c-13.8,17.5-20.7,40.2-20.7,68c0,27.4,6.9,49.9,20.7,67.4c15,19.2,35.9,28.8,62.5,28.8s47.6-9.7,63.1-29.1
			C2668.3,6068.5,2675.4,6046.1,2675.4,6018.7z"/>
		<path id="XMLID_36_" d="M3279.1,5867.5h69.9v301.2h-69.9v-31.5c-28.7,26.8-59.5,40.2-92.5,40.2c-41.6,0-76.1-15-103.3-45.1
			c-27-30.7-40.5-69.1-40.5-115c0-45.1,13.5-82.8,40.5-112.9c27-30.1,60.8-45.1,101.4-45.1c35,0,66.5,14.4,94.3,43.3V5867.5z
			 M3114,6017.1c0,28.9,7.7,52.4,23.2,70.5c15.9,18.3,35.9,27.5,60,27.5c25.8,0,46.6-8.9,62.5-26.6c15.9-18.3,23.8-41.6,23.8-69.9
			c0-28.2-7.9-51.5-23.8-69.9c-15.9-17.9-36.5-26.9-61.8-26.9c-23.9,0-43.9,9.1-60,27.2C3121.9,5967.4,3114,5990.1,3114,6017.1z"/>
		<path id="XMLID_39_" d="M3743.9,6161.5c0,14.2-0.5,26.7-1.4,37.6c-0.9,10.8-2.2,20.4-3.9,28.6c-4.9,22.7-14.6,42.2-29.1,58.4
			c-27.2,31.3-64.6,47-112.2,47c-40.2,0-73.3-10.8-99.3-32.5c-26.8-22.3-42.3-53.1-46.4-92.5h69.9c2.7,14.8,7.1,26.3,13.3,34.3
			c14.4,18.8,35.5,28.1,63.1,28.1c50.9,0,76.4-31.2,76.4-93.7v-42.1c-27.6,28.2-59.5,42.4-95.5,42.4c-41,0-74.6-14.8-100.8-44.5
			c-26.4-30.1-39.6-67.7-39.6-112.9c0-43.9,12.3-81.2,36.8-111.9c26.4-32.6,61.2-48.9,104.5-48.9c37.9,0,69.5,14.1,94.6,42.4v-34
			h69.6V6161.5z M3677.1,6018.7c0-29.3-7.8-52.7-23.5-70.2c-15.9-17.9-36.2-26.9-60.9-26.9c-26.4,0-47.2,9.8-62.5,29.4
			c-13.8,17.5-20.7,40.2-20.7,68c0,27.4,6.9,49.9,20.7,67.4c15,19.2,35.9,28.8,62.5,28.8s47.6-9.7,63.1-29.1
			C3670,6068.5,3677.1,6046.1,3677.1,6018.7z"/>
		<path id="XMLID_42_" d="M4121.8,6034.4H3906c1.9,24.7,9.9,44.4,24.1,59.1c14.2,14.4,32.5,21.6,54.7,21.6c17.3,0,31.6-4.1,43-12.4
			c11.1-8.2,23.8-23.5,38-45.8l58.7,32.8c-9.1,15.5-18.7,28.7-28.8,39.7c-10.1,11-20.9,20.1-32.5,27.2c-11.5,7.1-24,12.3-37.4,15.6
			c-13.4,3.3-27.9,4.9-43.6,4.9c-44.9,0-81-14.4-108.2-43.3c-27.2-29.1-40.8-67.6-40.8-115.6c0-47.6,13.2-86.2,39.6-115.6
			c26.6-29.1,61.8-43.6,105.7-43.6c44.3,0,79.4,14.1,105.1,42.4c25.6,28,38.3,66.9,38.3,116.6L4121.8,6034.4z M4050.4,5977.5
			c-9.7-37.1-33.1-55.7-70.2-55.7c-8.5,0-16.4,1.3-23.8,3.9c-7.4,2.6-14.2,6.3-20.3,11.1c-6.1,4.8-11.3,10.7-15.6,17.5
			s-7.6,14.5-9.9,23.2H4050.4z"/>
		<path id="XMLID_45_" d="M4213.7,5867.5h69.9v27.8c24.3-24.1,51.7-36.2,82.2-36.2c35,0,62.4,11,81.9,33.1
			c16.9,18.8,25.4,49.4,25.4,91.8v184.6h-69.9v-168.2c0-29.7-4.1-50.2-12.4-61.5c-8-11.5-22.7-17.3-43.9-17.3
			c-23.1,0-39.5,7.6-49.2,22.9c-9.5,15-14.2,41.3-14.2,78.8v145.3h-69.9V5867.5z"/>
		<path id="XMLID_47_" d="M4811.2,5880.4v92.5c-15.9-19.4-30.1-32.7-42.7-39.9c-12.4-7.4-26.9-11.1-43.6-11.1
			c-26.2,0-47.9,9.2-65.2,27.5c-17.3,18.3-26,41.3-26,69c0,28.2,8.3,51.4,25,69.6c16.9,18.1,38.4,27.2,64.6,27.2
			c16.7,0,31.4-3.6,44.2-10.8c12.4-7,26.9-20.6,43.6-40.8v91.8c-28.2,14.6-56.5,22-84.7,22c-46.6,0-85.5-15-116.9-45.1
			c-31.3-30.3-47-67.9-47-112.9c0-44.9,15.9-82.9,47.6-113.8c31.7-30.9,70.7-46.4,116.9-46.4
			C4756.7,5859.1,4784.8,5866.2,4811.2,5880.4z"/>
		<path id="XMLID_49_" d="M4989.3,6112.7l-135.4-245.2h80.7l92.1,173.2l86-173.2h78.5l-239.9,465h-79.5L4989.3,6112.7z"/>
	</g>
</g>
</svg>
