<?xml version="1.0" encoding="utf-8"?>
<!-- Generator: Adobe Illustrator 20.0.0, SVG Export Plug-In . SVG Version: 6.00 Build 0)  -->
<svg version="1.1" id="logo" xmlns="http://www.w3.org/2000/svg" xmlns:xlink="http://www.w3.org/1999/xlink" x="0px" y="0px"
	 viewBox="0 0 8503.9 8503.9" style="enable-background:new 0 0 8503.9 8503.9;" xml:space="preserve">
<style type="text/css">
	.st0{fill:#FFFFFF;}
</style>
<g id="backup_-_V">
	<path id="XMLID_3_" class="st0" d="M6051.6,3308.8L4632.7,6748.5c-13.3-35.4-26.5-70.8-39.8-106.2c-13.9-37-27.8-74-41.6-111
		c-14.4-38.5-28.9-77-43.3-115.6c-15-39.9-30-79.9-45-119.8c-15.5-41.3-31-82.6-46.5-123.8c-16-42.5-31.9-85-47.9-127.6
		c-16.4-43.7-32.8-87.3-49.2-131c-16.8-44.7-33.6-89.4-50.4-134.2c-17.2-45.7-34.3-91.4-51.5-137c-17.5-46.5-35-93.1-52.5-139.6
		c-17.8-47.3-35.6-94.6-53.4-142c-18-48-36.1-96-54.1-144c-18.3-48.6-36.5-97.2-54.8-145.8c-18.5-49.1-36.9-98.2-55.4-147.3
		c-18.6-49.5-37.3-99-55.9-148.5c-18.7-49.8-37.5-99.6-56.3-149.4c-18.8-50-37.7-100-56.5-150.1c-18.9-50.1-37.8-100.3-56.7-150.4
		c-18.9-50.2-37.8-100.3-56.7-150.5c-18.9-50.1-37.8-100.2-56.7-150.3c-18.8-50-37.7-99.9-56.6-149.9
		c-18.8-49.7-37.5-99.4-56.3-149.1c-18.6-49.4-37.3-98.7-56-148.1c-18.5-48.9-37-97.9-55.5-146.8c-18.3-48.4-36.6-96.8-54.9-145.2
		c-18.1-47.8-36.2-95.6-54.3-143.3c-17.8-47.1-35.7-94.1-53.5-141.2c-17.5-46.3-35.1-92.5-52.6-138.8
		c-17.2-45.4-34.4-90.7-51.7-136.1c-16.9-44.4-33.7-88.7-50.6-133.1c-16.5-43.3-32.9-86.6-49.4-129.9c-16-42.1-32.1-84.2-48.1-126.3
		c-15.6-40.8-31.1-81.7-46.7-122.5c-15.1-39.5-30.2-78.9-45.2-118.4c-14.5-38-29.1-76-43.7-114c-14-36.5-28-72.9-42-109.4
		c-13.4-34.8-26.8-69.7-40.2-104.5c-12.7-33.1-25.5-66.2-38.2-99.3c-12.1-31.3-24.1-62.5-36.2-93.8c-11.4-29.3-22.7-58.7-34.1-88
		c-10.6-27.3-21.3-54.6-31.9-82c-9.8-25.2-19.7-50.4-29.6-75.6c-9-23-18.1-46-27.2-69c-8.2-20.7-16.4-41.4-24.6-62.2
		c-7.3-18.3-14.6-36.7-22-55c-6.4-15.9-12.8-31.7-19.3-47.6c-5.4-13.3-10.9-26.6-16.4-39.8c-4.4-10.6-8.9-21.3-13.5-31.8
		c-3.4-7.9-6.9-15.8-10.5-23.6c-2.3-5-4.6-10.1-7.3-15c-15.7-28.6-60.1-33.5-88.9-36.7c-44.3-4.8-87.4-1.9-126.8,20.1
		c-20.3,11.3-39.1,24-53.7,42.4c-24,30.4-34,67.7-45.6,104c-11.9,37.1-23.5,74.3-33.8,111.9c-8.1,29.3-16.8,59.4-20,89.8
		c-9.2,88.3-10.5,275.8,8.3,366.7c0.3,1.3,0.6,2.5,1,3.7c18.5,60.6,37.5,120.9,56.9,181.2c21.9,68,44.2,135.8,66.9,203.5
		c25,74.6,50.3,149.1,75.9,223.5c27.7,80.5,55.7,160.8,83.9,241.1c30.1,85.5,60.4,170.9,90.9,256.3c32.1,89.8,64.4,179.5,96.9,269.1
		c33.8,93.3,67.8,186.5,102,279.6c35.2,96,70.6,191.9,106,287.7c36.2,97.9,72.6,195.7,109.1,293.5c37,99,74,197.9,111.2,296.8
		c37.3,99.3,74.8,198.6,112.4,297.8c37.4,98.9,74.9,197.7,112.5,296.5c37.1,97.6,74.4,195.2,111.6,292.7
		c36.5,95.6,73.1,191.1,109.8,286.6c35.6,92.7,71.3,185.4,107,278.1c34.4,89.1,68.8,178.2,103.2,267.3
		c32.8,84.7,65.6,169.4,98.4,254.1c30.9,79.5,61.7,159,92.7,238.5c28.6,73.5,57.3,147,85.9,220.5c26,66.7,52.1,133.5,78.2,200.2
		c23.1,59.2,46.3,118.3,69.5,177.5c19.9,50.8,39.9,101.6,59.8,152.4c16.4,41.7,32.7,83.3,49.1,124.9c12.5,31.7,25,63.4,37.5,95.1
		c8.3,21,16.6,42,24.8,62.9c10.7,27.2,26.4,54,50.1,71.9c27.4,20.8,57.8,20.7,90.7,20.7c38,0,76,0,113.9,0c96.1,0,192.3,0,288.4,0
		c21.1,0,63.3-0.2,63.3-0.2h106l27.1-69.2c0,0,13.8-33.8,20.4-50.8c9.2-24,18.4-48.1,27.6-72.1c13.8-35.9,27.5-71.7,41.3-107.6
		c17.8-46.4,35.6-92.8,53.4-139.2c21.3-55.6,42.6-111.2,64-166.8c24.3-63.5,48.7-127,73-190.5c26.9-70.1,53.8-140.2,80.6-210.3
		c28.9-75.4,57.8-150.8,86.7-226.2c30.4-79.4,60.9-158.8,91.3-238.2c31.5-82.1,62.9-164.2,94.4-246.2c32-83.5,64-166.9,96-250.4
		s64-167,96.1-250.6c31.5-82.3,63.1-164.6,94.6-246.8c30.6-79.7,61.1-159.5,91.7-239.2c29.1-75.9,58.2-151.8,87.3-227.6
		c27.1-70.7,54.2-141.4,81.3-212.2c24.6-64.3,49.3-128.5,73.9-192.8c21.7-56.5,43.3-113,65-169.4c18.2-47.4,36.3-94.8,54.5-142.2
		c14.2-37,28.4-74,42.6-111c9.7-25.3,19.4-50.6,29.1-76c4.7-12.3,9.4-24.6,14.2-37c0.4-1,0.8-2,1.2-3
		C6491.2,3538.1,6110,3165,6051.6,3308.8z"/>
</g>
<g id="ramka_mniejsza">
	<polygon id="XMLID_6_" class="st0" points="8446.6,8447.9 6430.1,8447.9 6430.1,8347.9 8346.6,8347.9 8346.6,156 154.8,156 
		154.8,8347.9 2056.2,8347.9 2056.2,8447.9 54.8,8447.9 54.8,56 8446.6,56 	"/>
</g>
<g id="ramka_większa">
	<polygon id="XMLID_9_" class="st0" points="8456.6,8457.9 5851.9,8457.9 5851.9,8337.9 8336.6,8337.9 8336.6,166 164.8,166 
		164.8,8337.9 2649.5,8337.9 2649.5,8457.9 44.8,8457.9 44.8,46 8456.6,46 	"/>
</g>
<path id="XMLID_1_" class="st0" d="M6050.3,3308.8L4631.4,6748.5c-13.3-35.4-26.5-70.8-39.8-106.2c-13.9-37-27.8-74-41.6-111
	c-14.4-38.5-28.9-77-43.3-115.6c-15-39.9-30-79.9-45-119.8c-15.5-41.3-31-82.6-46.5-123.8c-16-42.5-31.9-85-47.9-127.6
	c-16.4-43.7-32.8-87.3-49.2-131c-16.8-44.7-33.6-89.4-50.4-134.2c-17.2-45.7-34.3-91.4-51.5-137c-17.5-46.5-35-93.1-52.5-139.6
	c-17.8-47.3-35.6-94.6-53.4-142c-18-48-36.1-96-54.1-144c-18.3-48.6-36.5-97.2-54.8-145.8c-18.5-49.1-36.9-98.2-55.4-147.3
	c-18.6-49.5-37.3-99-55.9-148.5c-18.7-49.8-37.5-99.6-56.3-149.4c-18.8-50-37.7-100-56.5-150.1c-18.9-50.1-37.8-100.3-56.7-150.4
	c-18.9-50.2-37.8-100.3-56.7-150.5c-18.9-50.1-37.8-100.2-56.7-150.3c-18.8-50-37.7-99.9-56.6-149.9
	c-18.8-49.7-37.5-99.4-56.3-149.1c-18.6-49.4-37.3-98.7-56-148.1c-18.5-48.9-37-97.9-55.5-146.8c-18.3-48.4-36.6-96.8-54.9-145.2
	c-18.1-47.8-36.2-95.6-54.3-143.3c-17.8-47.1-35.7-94.1-53.5-141.2c-17.5-46.3-35.1-92.5-52.6-138.8
	c-17.2-45.4-34.4-90.7-51.7-136.1c-16.9-44.4-33.7-88.7-50.6-133.1c-16.5-43.3-32.9-86.6-49.4-129.9c-16-42.1-32.1-84.2-48.1-126.3
	c-15.6-40.8-31.1-81.7-46.7-122.5c-15.1-39.5-30.2-78.9-45.2-118.4c-14.5-38-29.1-76-43.7-114c-14-36.5-28-72.9-42-109.4
	c-13.4-34.8-26.8-69.7-40.2-104.5c-12.7-33.1-25.5-66.2-38.2-99.3c-12.1-31.3-24.1-62.5-36.2-93.8c-11.4-29.3-22.7-58.7-34.1-88
	c-10.6-27.3-21.3-54.6-31.9-82c-9.8-25.2-19.7-50.4-29.6-75.6c-9-23-18.1-46-27.2-69c-8.2-20.7-16.4-41.4-24.6-62.2
	c-7.3-18.3-14.6-36.7-22-55c-6.4-15.9-12.8-31.7-19.3-47.6c-5.4-13.3-10.9-26.6-16.4-39.8c-4.4-10.6-8.9-21.3-13.5-31.8
	c-3.4-7.9-6.9-15.8-10.5-23.6c-2.3-5-4.6-10.1-7.3-15c-15.7-28.6-60.1-33.5-88.9-36.7c-44.3-4.8-87.4-1.9-126.8,20.1
	c-20.3,11.3-39.1,24-53.7,42.4c-24,30.4-34,67.7-45.6,104c-11.9,37.1-23.5,74.3-33.8,111.9c-8.1,29.3-16.8,59.4-20,89.8
	c-9.2,88.3-10.5,275.8,8.3,366.7c0.3,1.3,0.6,2.5,1,3.7c18.5,60.6,37.5,120.9,56.9,181.2c21.9,68,44.2,135.8,66.9,203.5
	c25,74.6,50.3,149.1,75.9,223.5c27.7,80.5,55.7,160.8,83.9,241.1c30.1,85.5,60.4,170.9,90.9,256.3c32.1,89.8,64.4,179.5,96.9,269.1
	c33.8,93.3,67.8,186.5,102,279.6c35.2,96,70.6,191.9,106,287.7c36.2,97.9,72.6,195.7,109.1,293.5c37,99,74,197.9,111.2,296.8
	c37.3,99.3,74.8,198.6,112.4,297.8c37.4,98.9,74.9,197.7,112.5,296.5c37.1,97.6,74.4,195.2,111.6,292.7
	c36.5,95.6,73.1,191.1,109.8,286.6c35.6,92.7,71.3,185.4,107,278.1c34.4,89.1,68.8,178.2,103.2,267.3
	c32.8,84.7,65.6,169.4,98.4,254.1c30.9,79.5,61.7,159,92.7,238.5c28.6,73.5,57.3,147,85.9,220.5c26,66.7,52.1,133.5,78.2,200.2
	c23.1,59.2,46.3,118.3,69.5,177.5c19.9,50.8,39.9,101.6,59.8,152.4c16.4,41.7,32.7,83.3,49.1,124.9c12.5,31.7,25,63.4,37.5,95.1
	c8.3,21,16.6,42,24.8,62.9c10.7,27.2,26.4,54,50.1,71.9c27.4,20.8,57.8,20.7,90.7,20.7c38,0,76,0,113.9,0c96.1,0,192.3,0,288.4,0
	c21.1,0,63.3-0.2,63.3-0.2h106l27.1-69.2c0,0,13.8-33.8,20.4-50.8c9.2-24,18.4-48.1,27.6-72.1c13.8-35.9,27.5-71.7,41.3-107.6
	c17.8-46.4,35.6-92.8,53.4-139.2c21.3-55.6,42.6-111.2,64-166.8c24.3-63.5,48.7-127,73-190.5c26.9-70.1,53.8-140.2,80.6-210.3
	c28.9-75.4,57.8-150.8,86.7-226.2c30.4-79.4,60.9-158.8,91.3-238.2c31.5-82.1,62.9-164.2,94.4-246.2c32-83.5,64-166.9,96-250.4
	s64-167,96.1-250.6c31.5-82.3,63.1-164.6,94.6-246.8c30.6-79.7,61.1-159.5,91.7-239.2c29.1-75.9,58.2-151.8,87.3-227.6
	c27.1-70.7,54.2-141.4,81.3-212.2c24.6-64.3,49.3-128.5,73.9-192.8c21.7-56.5,43.3-113,65-169.4c18.2-47.4,36.3-94.8,54.5-142.2
	c14.2-37,28.4-74,42.6-111c9.7-25.3,19.4-50.6,29.1-76c4.7-12.3,9.4-24.6,14.2-37c0.4-1,0.8-2,1.2-3
	C6490,3538.1,6108.7,3165,6050.3,3308.8z"/>
</svg>
